Coordinates
version=1
nRows=19
nColumns=36
inDegrees=yes

Units are S.I. units (second, meters, Newtons, ...)
If the header above contains a line with 'inDegrees', this indicates whether rotational values are in degrees (yes) or radians (no).

endheader
time	pelvis_tilt	pelvis_list	pelvis_rotation	pelvis_tx	pelvis_ty	pelvis_tz	hip_flexion_r	hip_adduction_r	hip_rotation_r	knee_angle_r	knee_angle_r_beta	ankle_angle_r	subtalar_angle_r	mtp_angle_r	hip_flexion_l	hip_adduction_l	hip_rotation_l	knee_angle_l	knee_angle_l_beta	ankle_angle_l	subtalar_angle_l	mtp_angle_l	lumbar_extension	lumbar_bending	lumbar_rotation	arm_flex_r	arm_add_r	arm_rot_r	elbow_flex_r	pro_sup_r	arm_flex_l	arm_add_l	arm_rot_l	elbow_flex_l	pro_sup_l
      2.71666670	      5.56227920	      3.02784799	     -2.57098752	     -0.11199892	      0.89796511	      0.22462505	     -1.03089139	      4.89738722	     -2.96061475	      9.96607913	      0.17394089	      4.87907080	     -0.84944359	     -7.49999987	     21.92523385	     -2.41217293	     -6.87640520	      4.09286191	      0.07143392	     -3.06011091	     10.78072506	     -7.49999987	     -9.39554727	      0.68183022	     -1.78233324	     28.52956511	      5.64470481	     59.85716102	    125.28165922	     90.19449848	     30.49683351	     15.34726094	     68.68115017	    124.33183010	     70.67675864
      2.73333330	      5.93063266	      2.99570469	     -2.48640907	     -0.11199375	      0.89763504	      0.22451704	     -1.16647927	      4.91263153	     -2.65733168	     10.35016544	      0.18064447	      5.47641992	     -1.04318243	     -7.49999987	     21.90614362	     -2.46716681	     -6.45824197	      3.89657109	      0.06800800	     -3.53836705	     10.05429509	     -7.49999987	     -9.79725083	      0.52433236	     -1.60795893	     28.54069190	      5.71860452	     59.95824499	    125.34820879	     89.93982237	     30.74442776	     15.34379324	     68.66223359	    124.10641003	     70.71623299
      2.75000000	      6.08495558	      3.04837486	     -2.41268384	     -0.11188345	      0.89712939	      0.22463129	     -1.02177834	      4.83548430	     -2.46686087	     10.81865738	      0.18882119	      5.94705657	     -1.15234734	     -7.49999987	     22.05275736	     -2.47175074	     -6.11057628	      3.79866207	      0.06629916	     -3.67844409	      9.71995754	     -7.49999987	     -9.93818911	      0.35765441	     -1.57119601	     28.47035315	      5.85394958	     59.96100278	    125.54704853	     94.54274689	     30.71441237	     15.22774612	     68.37828692	    123.94579955	     73.60835800
      2.76666670	      6.26126407	      3.17809960	     -2.40693685	     -0.11240073	      0.89760224	      0.22483868	     -1.04107962	      4.71133615	     -2.13839356	     11.19838384	      0.19544867	      6.39066797	     -1.31267761	     -7.49999987	     22.13395143	     -2.42631740	     -5.76044280	      3.74713606	      0.06539986	     -3.81049299	      9.49492134	     -7.49999987	     -9.98524335	      0.09467627	     -1.52505502	     28.49699174	      5.96661934	     60.57974721	    125.83359533	     93.27752003	     30.78977560	     15.12874177	     68.32606180	    123.90989497	     72.98122391
      2.78333330	      6.32225541	      3.14408902	     -2.45306034	     -0.11372598	      0.89607915	      0.22497423	     -0.73614683	      4.76000673	     -1.87942576	     11.77655717	      0.20553970	      7.64753669	     -1.46003967	     -7.49999987	     22.30421528	     -2.54401560	     -5.51132547	      3.36648538	      0.05875625	     -3.42840018	      9.85908971	     -7.49999987	    -10.23229235	      0.17950787	     -1.32394293	     28.56894768	      5.92020468	     60.28656795	    125.80644344	     92.49562240	     31.20516440	     15.21672299	     68.40785802	    124.02368356	     72.54894044
      2.80000000	      6.48258539	      3.11897461	     -2.59645419	     -0.11223667	      0.89920212	      0.22548920	     -0.81682911	      4.80105831	     -1.51648077	     12.00874376	      0.20959212	      8.29070044	     -1.51562659	     -7.49999987	     22.31373922	     -2.70726580	     -5.11267954	      3.11895920	      0.05443611	     -3.40037502	      9.96679219	     -7.49999987	    -10.24460635	      0.02001438	     -1.17933520	     28.45074258	      5.99207373	     60.84083638	    126.11349366	     92.69372271	     31.11137287	     15.17454485	     68.33260941	    123.91692211	     72.63205942
      2.81666670	      6.59386808	      3.12318352	     -2.61836233	     -0.11192323	      0.89779351	      0.22536702	     -0.68851499	      4.80089163	     -1.36380567	     12.54096054	      0.21888105	      8.90833525	     -1.68415117	     -7.49999987	     22.46118629	     -2.78358447	     -4.73395318	      3.11661497	      0.05439519	     -3.42447567	      9.74408671	     -7.49999987	    -10.35276861	     -0.02416314	     -1.01216414	     28.50996205	      6.11444756	     61.94648893	    126.53806048	     91.88991719	     31.11026861	     15.12830771	     68.46600989	    123.95422972	     72.24465280
      2.83333330	      6.73491375	      3.10912740	     -2.71449962	     -0.11126405	      0.89972286	      0.22497153	     -0.66188112	      4.80759106	     -0.97745783	     13.04858803	      0.22774082	      9.28729951	     -2.01641489	     -7.49999987	     22.56444862	     -2.89858586	     -4.29876134	      3.19993630	      0.05584942	     -3.33012466	      9.41327336	     -7.49999987	    -10.42365299	     -0.09723956	     -0.96882823	     28.61210730	      6.16124327	     63.03388530	    126.93358193	     90.87681375	     31.09628657	     14.96798472	     68.28364676	    123.91690320	     71.73891589
      2.85000000	      6.91370301	      3.13427447	     -2.72308712	     -0.11016038	      0.89855508	      0.22489445	     -0.69884442	      4.75320229	     -0.79371438	     13.62777972	      0.23784963	      9.79958188	     -2.26052080	     -7.49999987	     22.65399940	     -2.93642181	     -3.76975636	      3.38465253	      0.05907333	     -3.22702974	      8.87944233	     -7.49999987	    -10.52860034	     -0.13723849	     -0.98518155	     28.79873145	      6.09720580	     63.58037011	    127.14640608	     88.98029231	     31.10482304	     14.82679508	     67.99293139	    123.95259470	     70.79969588
      2.86666670	      7.11609224	      3.14138120	     -2.75153453	     -0.11028207	      0.89928376	      0.22493626	     -0.97954794	      4.73595421	     -0.56722786	     13.62863265	      0.23786451	     10.21379898	     -2.51148039	     -7.49999987	     22.59331955	     -3.00405686	     -3.79190206	      3.21075584	      0.05603826	     -3.14875280	      9.05997130	     -7.49999987	    -10.61939437	     -0.19517799	     -0.95685719	     28.83979341	      6.06427939	     64.28719823	    127.53729457	     89.15495192	     31.08147958	     14.77079525	     67.80992432	    123.74217018	     70.90546654
      2.88333330	      7.32284266	      3.06005920	     -2.73796021	     -0.11032063	      0.89950308	      0.22542950	     -1.16546689	      4.80264796	     -0.52897855	     13.72332061	      0.23951713	     10.36643971	     -2.67534351	     -7.49999987	     22.55348550	     -3.12269434	     -3.53485843	      3.09160034	      0.05395861	     -3.29408765	      8.99196380	     -7.49999987	    -10.85621807	     -0.10933088	     -0.90919729	     28.98570053	      5.97971554	     64.58190273	    127.77724816	     89.24187015	     31.09177947	     14.73897510	     67.67409904	    123.67780757	     70.98632544
      2.90000000	      7.24313625	      3.06605565	     -2.70334161	     -0.11144172	      0.89957966	      0.22546702	     -1.05926787	      4.81529132	     -0.47519498	     13.68103167	      0.23877905	     10.69974152	     -2.54231796	     -7.49999987	     22.81831161	     -3.18090366	     -3.43244187	      2.87526981	      0.05018293	     -3.56072976	      8.89585584	     -7.49999987	    -10.85185641	     -0.13684711	     -0.77602366	     28.98400327	      5.85354001	     64.23809877	    128.11835582	     95.53440309	     31.03715751	     14.86783226	     67.51674604	    123.58899574	     74.07170522
      2.91666670	      7.34509572	      3.00652352	     -2.75077206	     -0.11056854	      0.89964161	      0.22555828	     -1.10352657	      4.89611067	     -0.30779342	     13.80399347	      0.24092514	     10.76276320	     -2.67502111	     -7.49999987	     22.78705429	     -3.31413407	     -3.44350962	      2.60888363	      0.04553361	     -3.76182303	      8.95912701	     -7.49999987	    -10.95554883	     -0.12284679	     -0.67245579	     29.22903217	      5.70895063	     64.28352383	    128.27826197	     92.65836768	     30.99054955	     14.96515461	     67.56215692	    123.57955194	     72.64611980
      2.93333330	      7.27554242	      2.88187224	     -2.62947295	     -0.11262718	      0.89819708	      0.22601316	     -0.76642337	      5.02676128	     -0.25437132	     14.09566043	      0.24601568	     11.29228263	     -2.69216323	     -7.49999987	     22.89903303	     -3.50770719	     -3.50074567	      2.03514419	      0.03551997	     -3.79966810	      9.31760381	     -7.49999987	    -11.15148238	      0.12694910	     -0.53464143	     29.38545483	      5.43832024	     63.24745210	    128.15464239	     90.83028036	     31.32395628	     15.18521421	     67.81423229	    123.86433395	     71.80004357
      2.95000000	      7.35425287	      2.85206396	     -2.65412502	     -0.11217391	      0.89929854	      0.22657787	     -0.74830077	      5.07872031	     -0.03919368	     14.42619269	      0.25178456	     11.24521180	     -2.47662986	     -7.49999987	     23.00786468	     -3.63600506	     -3.78541159	      1.99838750	      0.03487844	     -4.04188491	      9.34027599	     -7.49999987	    -11.22964937	      0.07949380	     -0.18957911	     29.45467729	      5.32756104	     62.13854185	    128.11468676	     95.39685622	     31.27006855	     15.31504102	     67.73655324	    123.75488453	     73.98695391
      2.96666670	      7.43223090	      2.87418013	     -2.57862786	     -0.11222099	      0.89809284	      0.22671104	     -0.52037077	      5.07124268	     -0.09886668	     15.11419453	      0.26379246	     11.35497871	     -2.30765526	     -7.49999987	     23.17486252	     -3.68995766	     -3.68380903	      2.14020207	      0.03735357	     -4.19418696	      8.87586263	     -7.49999987	    -11.34512060	      0.04157710	     -0.02989004	     29.57637509	      5.40472758	     61.82128136	    127.96126694	     94.31133415	     31.38077193	     15.37804255	     67.84810027	    123.76962933	     73.78149414
      2.98333330	      7.40416564	      2.97737134	     -2.66421021	     -0.11200812	      0.89847323	      0.22702369	     -0.24435895	      4.96986328	      0.17083776	     15.35611340	      0.26801474	     11.77474655	     -2.23613791	     -7.49999987	     23.20503579	     -3.71927466	     -3.90131753	      2.00889859	      0.03506189	     -4.34934779	      9.07146159	     -7.49999987	    -11.48588238	     -0.07631400	      0.21576218	     29.46683029	      5.41000273	     61.09476162	    127.70448571	     95.44634672	     31.59542683	     15.52053702	     68.01522297	    124.00809326	     74.21829261
      3.00000000	      7.38773822	      3.16501041	     -2.73097286	     -0.10950977	      0.89848883	      0.22737060	     -0.08340279	      4.74139284	      0.26725993	     15.69697387	      0.27396388	     12.25910508	     -1.88490692	     -7.49999987	     23.09720095	     -3.59972463	     -4.10095867	      1.80859089	      0.03156587	     -4.46912845	      9.28008158	     -7.49999987	    -11.48858204	     -0.31747559	      0.36446365	     29.38450229	      5.39466221	     60.05366558	    127.18982234	     94.86108301	     31.67976028	     15.56726098	     68.10310035	    124.13495874	     74.03112156
      3.01666670	      7.56120654	      3.38416956	     -2.86466724	     -0.10971593	      0.89793555	      0.22764154	     -0.08099985	      4.48850188	      0.49726329	     16.47491662	      0.28754154	     11.84631545	     -2.09595628	     -7.49999987	     23.02474228	     -3.47013533	     -4.37198150	      2.01954982	      0.03524779	     -4.78511395	      8.75968766	     -7.49999987	    -11.66208437	     -0.61376213	      0.40777219	     29.53409382	      5.52110131	     59.46735735	    126.64794614	     91.15018802	     31.71367591	     15.47255950	     67.98729786	    124.25445103	     72.57691066
